# xmcd
#
# Track frame offsets:
#	150
#	3784
#	7419
#	15067
#	16639
#	18292
#	21892
#	25419
#	36219
#	38614
#	43419
#	54219
#	57815
#	62540
#	67467
#	69066
#	73418
#	76117
#	79567
#	81742
#	85642
#	87893
#	92018
#	98543
#	104592
#	107892
#	109193
#	111222
#	117467
#	119164
#	129818
#	132829
#	136702
#	142766
#	144132
#	146056
#	147819
#	151241
#	160860
#	165710
#	168518
#	180521
#	195812
#	201683
#	212540
#	215944
#	230620
#	234221
#	236016
#	241525
#	248767
#	252767
#	255820
#	263020
#	266619
#	274338
#	282883
#	284695
#	286495
#	288743
#	291296
#	297214
#	299939
#	302438
#	307461
#	312264
#	315589
#	324164
#
# Disc length: 4444 seconds
#
# Revision: 0
# Processed by: cddbd v1.4PL0 Copyright (c) Steve Scherf et al.
# Submitted via: dBpowerAMP V4.0
#
DISCID=d3115a44
DTITLE=Jon Gindick - Rock n' Blues Harmonica
DYEAR=2000
DGENRE=Blues
TTITLE0=Acoustic Jam
TTITLE1=Electric Jam
TTITLE2=Ground Rules
TTITLE3=Type Harmonica
TTITLE4=Acoustic Harp Explanation
TTITLE5=Amped Harp
TTITLE6=Word to Beginners
TTITLE7=Band's I-IV-V progression
TTITLE8=Cross Hard Draw Chord
TTITLE9=Tone Techniques
TTITLE10=I-IV-V Harp Chords
TTITLE11=V chord, IV chord
TTITLE12=Draw Blow Draw breath patterns
TTITLE13=Connecting Harp to Body
TTITLE14=Embouchures
TTITLE15=Single Note 4 Draw
TTITLE16=Compressed air column
TTITLE17=Vibrato
TTITLE18=Articulation
TTITLE19=Attack and Decay
TTITLE20=3 blow single note
TTITLE21=Soft Loud Soft Cry
TTITLE22=First day's lesson ends
TTITLE23=3 draw single note
TTITLE24=2 draw single note
TTITLE25=5 draw, 4 draw slide
TTITLE26=Moving harmonica
TTITLE27=6 blow, 3 blow, 9 blow
TTITLE28=2 draw to 3 draw
TTITLE29=Swing Low, Sweet Chariot
TTITLE30=Pentatonic Scale
TTITLE31=Beginner's Blues Riff
TTITLE32=Up Riff, Down Riff
TTITLE33=Don't Accent 4 blow
TTITLE34=4 and 5 draw riffs
TTITLE35=Headshake
TTITLE36=4 draw Surprise
TTITLE37=Good Morning Riffs
TTITLE38=6 blow Riffs
TTITLE39=9 blow Riffs
TTITLE40=Swing Low with riffs
TTITLE41=Bending
TTITLE42=4 draw bending
TTITLE43=3 draw bending
TTITLE44=2 draw bending
TTITLE45=Some Riffs on Page 130
TTITLE46=6 draw  Bend Down
TTITLE47=9 blow Down
TTITLE48=Stop and Start Scales
TTITLE49=Hand Effects
TTITLE50=Tongue Block SIngle Note
TTITLE51=Tongueslap
TTITLE52=Octaves 3-6b, 1-4d, 2-5b
TTITLE53=T-B vs Pucker
TTITLE54=Band with no harp
TTITLE55=Fast Jam Shuffle and easier riffs
TTITLE56=Broom Duster Riff
TTITLE57=Shortnin' Bread
TTITLE58=Frankie and Johnnie
TTITLE59=5d Rockin' Riff
TTITLE60=Broom Duster
TTITLE61=Minor Key Jam (Music in G Minor)
TTITLE62=Second position 3d bend
TTITLE63=Easier Riffs
TTITLE64=Red River Valley Vocal
TTITLE65=Tongue-blocking
TTITLE66=Minor key play-along
TTITLE67=Conclusion
EXTD=
EXTT0=
EXTT1=
EXTT2=
EXTT3=
EXTT4=
EXTT5=
EXTT6=
EXTT7=
EXTT8=
EXTT9=
EXTT10=
EXTT11=
EXTT12=
EXTT13=
EXTT14=
EXTT15=
EXTT16=
EXTT17=
EXTT18=
EXTT19=
EXTT20=
EXTT21=
EXTT22=
EXTT23=
EXTT24=
EXTT25=
EXTT26=
EXTT27=
EXTT28=
EXTT29=
EXTT30=
EXTT31=
EXTT32=
EXTT33=
EXTT34=
EXTT35=
EXTT36=
EXTT37=
EXTT38=
EXTT39=
EXTT40=
EXTT41=
EXTT42=
EXTT43=
EXTT44=
EXTT45=
EXTT46=
EXTT47=
EXTT48=
EXTT49=
EXTT50=
EXTT51=
EXTT52=
EXTT53=
EXTT54=
EXTT55=
EXTT56=
EXTT57=
EXTT58=
EXTT59=
EXTT60=
EXTT61=
EXTT62=
EXTT63=
EXTT64=
EXTT65=
EXTT66=
EXTT67=
PLAYORDER=
